<svg width="512" height="512" xmlns="http://www.w3.org/2000/svg" style="vector-effect: non-scaling-stroke;" stroke="null">
 <style style="vector-effect: non-scaling-stroke;" stroke="null" type="text/css">
  <![CDATA[
	.st0{fill-rule:evenodd;clip-rule:evenodd;fill:#F6C32E;}
	.st1{fill:#393939;}
]]>
 </style>

 <g stroke="null">
  <title stroke="null">background</title>
  <rect stroke="null" fill="none" id="canvas_background" height="514" width="514" y="-1" x="-1"/>
 </g>
 <g stroke="null">
  <title stroke="null">Layer 1</title>
  <g stroke="null" id="svg_1">
   <path stroke="null" id="svg_2" d="m390.230854,57.308132c10.338735,7.390743 20.013134,15.570385 28.940155,24.538926c41.521025,41.521025 67.181019,98.861561 67.181019,162.222646s-25.659994,120.701621 -67.181019,162.222646s-98.861561,67.181019 -162.181125,67.181019c-29.023197,0 -56.759242,-5.397733 -82.336193,-15.196695l34.753098,-38.365427c15.155174,4.110582 31.099248,6.269675 47.583095,6.269675c50.281962,0 95.830527,-20.386823 128.7567,-53.354518c32.967694,-32.967694 53.312997,-78.474738 53.312997,-128.7567c0,-50.281962 -20.386823,-95.830527 -53.312997,-128.7567c-6.89249,-6.89249 -14.324754,-13.203686 -22.213749,-18.933588l26.698019,-39.071285l0,0zm-287.159411,356.873213c-2.82343,-2.574304 -5.605338,-5.190128 -8.304205,-7.888995c-41.521025,-41.521025 -67.181019,-98.861561 -67.181019,-162.222646s25.659994,-120.701621 67.181019,-162.222646c32.635526,-32.635526 75.028493,-55.47209 122.445504,-63.734774l-30.517954,57.92183c-22.047664,9.217668 -41.894715,22.67048 -58.503125,39.27889c-32.967694,32.967694 -53.354518,78.474738 -53.354518,128.7567c0,49.077852 19.390319,93.588391 50.946298,126.34848l-22.712001,43.763161l0,0z" class="st1"/>
   <polygon stroke="null" id="svg_3" points="396.91618716716766,1.3793106079101562 263.3841131925583,3.164712905883789 134.75185000896454,247.34986877441406 222.3612402677536,248.26333618164062 85.46642673015594,511.58966064453125 394.25880801677704,173.9407196044922 278.91334903240204,173.9407196044922 396.91618716716766,1.3793106079101562 " class="st0"/>
  </g>
 </g>
</svg>